<svg width="16" height="16" viewBox="0 0 16 16" fill="none" xmlns="http://www.w3.org/2000/svg">
<path d="M13.3333 1.33333H12V0H10.6667V1.33333H5.33333V0H4V1.33333H2.66667C1.93333 1.33333 1.33333 1.93333 1.33333 2.66667V14.6667C1.33333 15.4 1.93333 16 2.66667 16H13.3333C14.0667 16 14.6667 15.4 14.6667 14.6667V2.66667C14.6667 1.93333 14.0667 1.33333 13.3333 1.33333ZM13.3333 14.6667H2.66667V6.66667H13.3333V14.6667ZM13.3333 5.33333H2.66667V2.66667H4V4H5.33333V2.66667H10.6667V4H12V2.66667H13.3333V5.33333Z" fill="#BDBDBD"/>
</svg>
